<svg width="24" height="24" xmlns="http://www.w3.org/2000/svg">
 <title>YouTube icon</title>

 <g>
  <title>background</title>
  <rect fill="none" id="canvas_background" height="402" width="582" y="-1" x="-1"/>
 </g>
 <g>
  <title>Layer 1</title>
  <path fill="white" stroke="#ffffff" id="svg_1" d="m23.495,6.205a3.007,3.007 0 0 0 -2.088,-2.088c-1.87,-0.501 -9.396,-0.501 -9.396,-0.501s-7.507,-0.01 -9.396,0.501a3.007,3.007 0 0 0 -2.088,2.088a31.247,31.247 0 0 0 -0.522,5.805a31.247,31.247 0 0 0 0.522,5.783a3.007,3.007 0 0 0 2.088,2.088c1.868,0.502 9.396,0.502 9.396,0.502s7.506,0 9.396,-0.502a3.007,3.007 0 0 0 2.088,-2.088a31.247,31.247 0 0 0 0.5,-5.783a31.247,31.247 0 0 0 -0.5,-5.805zm-13.886,9.396l0,-7.193l6.264,3.602l-6.264,3.591z" class="a"/>
 </g>
</svg>