<svg width="24" height="24" xmlns="http://www.w3.org/2000/svg">
 <title>Twitch icon</title>

 <g>
  <title>background</title>
  <rect fill="none" id="canvas_background" height="402" width="582" y="-1" x="-1"/>
 </g>
 <g>
  <title>Layer 1</title>
  <path fill="white" id="svg_1" d="m2.089,0l-1.564,4.175l0,16.694l5.736,0l0,3.131l3.132,0l3.127,-3.132l4.695,0l6.26,-6.258l0,-14.61l-21.386,0zm2.086,2.085l17.215,0l0,11.479l-3.652,3.652l-5.738,0l-3.127,3.127l0,-3.127l-4.698,0l0,-15.131z"/>
  <path fill="white" id="svg_2" d="m9.915,12.522l2.085,0l0,-6.26l-2.085,0l0,6.26zm5.735,0l2.086,0l0,-6.26l-2.086,0l0,6.26z"/>
 </g>
</svg>